<svg version="1.1" id="Layer_1" xmlns="http://www.w3.org/2000/svg" xmlns:xlink="http://www.w3.org/1999/xlink" x="0px" y="0px"
	 width="100%" viewBox="0 0 1024 576" enable-background="new 0 0 1024 576" xml:space="preserve">
<path fill="#000000" opacity="1.000000" stroke="none" 
	d="
M662.000000,577.000000 
	C441.333344,577.000000 221.166672,577.000000 1.000000,577.000000 
	C1.000000,385.000000 1.000000,193.000000 1.000000,1.000000 
	C342.333344,1.000000 683.666687,1.000000 1025.000000,1.000000 
	C1025.000000,193.000000 1025.000000,385.000000 1025.000000,577.000000 
	C904.166687,577.000000 783.333313,577.000000 662.000000,577.000000 
M305.811371,295.108704 
	C305.869659,280.116913 305.884399,265.124725 306.023651,250.133667 
	C306.050842,247.206696 305.102722,246.009338 302.018707,245.958405 
	C290.061523,245.760910 278.108887,245.303619 266.152985,245.007004 
	C238.411758,244.318771 210.667648,243.734467 182.929764,242.933014 
	C178.530899,242.805893 176.715759,243.895920 176.896454,248.690430 
	C177.253845,258.173706 177.218292,267.687012 176.908112,277.173615 
	C176.758804,281.739655 178.186264,283.128693 182.791611,283.094696 
	C209.447678,282.898193 236.107391,283.143433 262.762268,282.877594 
	C267.954010,282.825806 269.351501,284.432220 269.078003,289.381714 
	C268.199402,305.282043 267.507416,321.196960 267.055084,337.115082 
	C266.746521,347.973877 262.488098,354.569855 251.932709,356.846436 
	C242.443405,358.893097 232.693298,360.631073 223.032913,360.772186 
	C208.633347,360.982574 194.207550,359.742645 179.801605,358.959869 
	C175.546692,358.728668 173.787811,360.129242 173.927444,364.604187 
	C174.192352,373.092957 173.994644,381.595947 174.002747,390.093018 
	C174.009308,396.977783 174.018188,396.993866 180.706543,396.996460 
	C202.032562,397.004639 223.358688,397.038544 244.684570,396.984680 
	C256.493408,396.954865 267.656830,394.364136 277.787537,388.057007 
	C289.897522,380.517609 300.305054,371.200806 303.384460,356.706360 
	C305.120667,348.534149 304.715546,339.874329 304.956726,331.425110 
	C305.293640,319.621185 305.333221,307.808777 305.811371,295.108704 
M165.385071,190.862930 
	C156.005859,192.176041 147.907288,196.628922 140.678146,202.260468 
	C131.708466,209.247879 123.474838,217.347809 121.490341,229.230240 
	C120.272148,236.524323 120.173386,244.047150 120.051758,251.475128 
	C119.594566,279.396729 119.329201,307.321503 119.015434,335.245361 
	C118.999207,336.688385 119.200294,338.133850 119.398560,341.000000 
	C133.355087,341.000000 147.092010,340.875946 160.825821,341.029877 
	C180.089890,341.245789 199.351761,341.660858 218.613998,342.021881 
	C219.753082,342.043243 220.886276,342.482422 222.023376,342.487885 
	C230.577209,342.529144 239.131332,342.510376 247.702148,342.510376 
	C247.702148,329.317657 247.702148,316.403687 247.702148,302.869446 
	C217.048767,302.869446 186.686646,302.869446 156.000061,302.869446 
	C156.000061,300.436890 155.967834,298.625183 156.005112,296.814941 
	C156.329788,281.049683 156.720291,265.285583 156.981461,249.519318 
	C157.154266,239.088348 163.005661,231.065796 173.445358,229.117996 
	C183.899567,227.167450 194.529510,225.770920 205.141159,225.171555 
	C214.030258,224.669479 223.006256,225.618011 231.939102,226.026443 
	C235.053391,226.168839 238.178360,226.462494 241.255707,226.954407 
	C249.806183,228.321167 250.999634,227.345779 250.999908,218.571671 
	C251.000153,210.243896 251.015015,201.916061 250.984543,193.588409 
	C250.979309,192.156952 250.779556,190.726242 250.647003,189.000000 
	C233.942993,189.000000 217.638611,188.824890 201.340103,189.058823 
	C189.593872,189.227402 177.855469,189.940735 165.385071,190.862930 
M764.452820,347.110382 
	C762.969543,344.761047 760.219421,342.424408 760.195618,340.060394 
	C759.900757,310.732697 759.895142,281.399933 760.189209,252.072205 
	C760.215149,249.481064 762.388611,245.223312 764.387634,244.660019 
	C770.141907,243.038544 769.147217,239.460678 768.652283,235.037323 
	C754.913940,235.037323 741.293091,234.991882 727.674255,235.140518 
	C726.775452,235.150330 725.458801,236.470993 725.069763,237.468048 
	C721.281494,247.178558 717.586670,256.926971 713.989380,266.710205 
	C709.672424,278.450714 705.476562,290.235809 701.201660,302.075287 
	C700.376282,301.822113 699.620361,301.795990 699.523987,301.530487 
	C697.308838,295.426392 695.069153,289.328156 693.028259,283.164490 
	C688.204956,268.597595 683.493042,253.993774 678.710999,239.413132 
	C677.703247,236.340530 676.059570,234.498611 672.261719,234.901230 
	C668.141724,235.338013 663.939636,235.000015 659.773315,235.000000 
	C650.654907,234.999969 641.536499,235.000000 630.951477,235.000000 
	C632.215149,238.584900 632.459473,242.853470 634.235413,243.633057 
	C639.183899,245.805267 640.885193,249.531387 640.912354,254.040604 
	C641.080627,282.037079 641.110535,310.036163 640.822937,338.030670 
	C640.793762,340.861755 639.047058,345.173065 636.878113,346.185608 
	C631.688599,348.608215 631.427673,351.999268 632.370239,356.646179 
	C643.940674,356.646179 655.335754,356.646179 668.089417,356.646179 
	C666.834351,353.414703 666.490356,349.395447 664.788635,348.700409 
	C658.101257,345.968964 657.067871,340.656311 657.039001,334.732422 
	C656.939087,314.234772 656.993408,293.736328 657.016968,273.238220 
	C657.018494,271.897919 657.254944,270.557861 657.382080,269.217712 
	C659.244812,271.341705 660.240784,273.520599 661.018860,275.774719 
	C668.380737,297.101959 675.652344,318.460663 683.142822,339.742432 
	C683.732544,341.418060 685.660645,343.635284 687.155273,343.791107 
	C691.759094,344.270935 697.055054,345.158722 700.902832,343.362305 
	C703.462158,342.167419 704.002991,336.651306 705.453613,333.071930 
	C705.514709,332.921143 705.672119,332.808258 705.728333,332.656799 
	C712.142944,315.372589 718.524048,298.075836 724.983032,280.808228 
	C726.459839,276.860291 728.204224,273.012482 730.050293,268.578491 
	C730.631775,269.694550 730.894531,269.963562 730.895081,270.233124 
	C730.939270,293.062988 731.092896,315.894470 730.818176,338.720764 
	C730.785217,341.461639 728.931335,346.042114 727.042847,346.558899 
	C720.740295,348.283417 721.889099,352.271057 722.265320,356.635254 
	C737.968262,356.635254 753.362427,356.635254 768.742249,356.635254 
	C769.119080,352.700134 770.099121,348.870880 764.452820,347.110382 
M552.010193,252.502411 
	C558.530579,247.583923 565.328491,244.913040 573.952209,246.712082 
	C581.457520,248.277802 584.488098,253.161591 587.051086,259.319641 
	C587.910278,261.384125 589.338501,264.361328 590.983093,264.716766 
	C594.730530,265.526733 598.772827,264.972351 602.770081,264.972351 
	C602.770081,255.613403 602.770081,246.995697 602.770081,237.924072 
	C597.006226,236.890549 591.417175,235.534225 585.748352,234.940582 
	C570.784363,233.373550 555.540222,231.697769 541.489502,238.517090 
	C534.727661,241.798828 528.174377,246.621887 523.208069,252.234726 
	C515.490540,260.956909 511.881866,271.819580 510.816040,283.674988 
	C509.205078,301.593292 509.236420,319.112213 517.323425,335.777863 
	C520.673828,342.682312 525.756592,348.505066 532.200012,351.702911 
	C547.976746,359.532837 564.581055,360.513824 581.472839,354.468719 
	C583.407288,353.776428 586.223450,355.451019 588.602173,356.128662 
	C590.405334,356.642334 592.234680,357.969635 593.926025,357.783966 
	C597.588196,357.381958 601.169312,356.241669 605.000427,355.353027 
	C605.000427,342.860474 604.743652,330.534271 605.180054,318.232697 
	C605.289917,315.135468 606.815735,310.548798 609.092896,309.381531 
	C614.179810,306.773895 612.880432,303.252808 612.798950,299.374756 
	C597.351929,299.374756 582.295410,299.374756 565.806763,299.374756 
	C567.205078,302.777008 567.605957,306.845154 569.475098,307.699005 
	C574.369202,309.934723 575.975403,313.345642 575.995117,318.162933 
	C576.014282,322.828735 576.336609,327.526184 575.907654,332.152435 
	C575.397583,337.654205 573.800171,342.809937 567.754028,344.964630 
	C561.726990,347.112549 556.673706,345.688507 551.874023,341.486877 
	C544.470032,335.005341 542.828857,325.959900 541.217468,317.234436 
	C539.848450,309.821350 540.330750,302.065826 540.000854,294.461517 
	C539.347839,279.407837 542.446472,265.394775 552.010193,252.502411 
M799.998474,321.528320 
	C797.462402,327.740143 795.132996,334.048950 792.286926,340.115326 
	C791.172668,342.490295 789.290161,345.039185 787.070801,346.248322 
	C782.654724,348.654144 780.796753,351.597076 782.554504,356.674622 
	C795.202332,356.674622 807.924500,356.674622 820.572937,356.674622 
	C821.667786,352.389191 821.480896,348.924133 816.814148,347.437256 
	C812.544617,346.076904 811.179932,342.844574 812.081726,338.938690 
	C813.558960,332.539886 815.553711,326.260590 817.310852,320.000000 
	C825.000000,320.000000 831.991943,320.000000 838.983826,320.000000 
	C854.598206,320.000000 854.598145,320.000000 857.000488,335.528137 
	C858.372803,344.398499 857.302917,346.357910 849.281128,349.709167 
	C849.281128,351.995544 849.281128,354.258789 849.281128,356.649292 
	C865.950562,356.649292 882.338501,356.649292 898.624146,356.649292 
	C899.614685,352.101807 899.150330,348.916992 894.601624,346.564697 
	C892.156067,345.299988 890.066833,342.099731 889.156067,339.332092 
	C885.492554,328.200592 882.364380,316.893311 879.014832,305.657990 
	C872.342896,283.278046 865.701843,260.888519 858.865723,238.558731 
	C858.428406,237.130219 856.472717,235.222565 855.152039,235.164658 
	C847.683044,234.837128 840.192261,235.006302 832.728577,235.006302 
	C830.279663,241.461075 827.923523,247.675919 825.564087,253.889526 
	C820.408264,267.467255 815.258179,281.047119 810.091492,294.620697 
	C806.775818,303.331665 803.434509,312.032867 799.998474,321.528320 
M408.301208,348.928192 
	C410.755554,345.865387 413.646881,343.053528 415.578033,339.690308 
	C420.367218,331.349457 419.607178,322.094879 418.385559,313.124847 
	C417.848572,309.182068 415.476410,305.378723 413.474945,301.768555 
	C409.077484,293.836548 401.177673,289.918549 393.849213,285.419800 
	C386.351074,280.816895 378.026154,277.528137 372.030334,270.608093 
	C367.279602,265.125031 367.934265,252.678406 373.632141,249.168869 
	C383.557709,243.055328 398.826477,245.237900 402.097565,259.080963 
	C402.396423,260.345856 402.739349,261.695831 403.452820,262.738831 
	C404.095459,263.678192 405.237610,264.817657 406.224884,264.883209 
	C409.986115,265.132996 413.773804,264.984009 417.637909,264.984009 
	C417.637909,255.331818 417.637909,246.283356 417.637909,237.479233 
	C413.895599,236.590302 410.582886,235.310394 407.202240,235.094604 
	C397.785126,234.493500 388.337006,234.398178 378.906494,233.981537 
	C369.866180,233.582153 361.894226,237.079987 354.381775,241.296097 
	C346.411926,245.768921 342.392242,253.332733 341.334503,262.355591 
	C340.097839,272.904694 341.133087,283.293945 349.463135,290.639099 
	C356.487793,296.833252 364.871429,301.474701 372.575714,306.913696 
	C377.518829,310.403381 382.822937,313.585754 387.080322,317.799866 
	C395.692047,326.324127 391.850861,341.289337 380.408722,344.975464 
	C369.565216,348.468781 357.641815,343.275146 353.986938,329.850861 
	C353.599731,328.428650 352.256226,326.329956 351.165924,326.204834 
	C347.281921,325.759155 343.315582,326.030670 339.012238,326.030670 
	C339.012238,334.979828 338.906464,343.283966 339.133942,351.578979 
	C339.165619,352.733704 340.699005,354.668213 341.772980,354.850189 
	C357.914307,357.584900 374.208923,359.859619 390.452972,356.722809 
	C396.430908,355.568420 401.894775,351.751892 408.301208,348.928192 
M478.000000,291.500000 
	C478.000214,279.334015 478.007446,267.168030 477.996704,255.002029 
	C477.993042,250.879013 478.885681,246.688141 482.703796,244.923782 
	C487.481445,242.715988 487.612823,239.561279 486.567902,235.378998 
	C470.682678,235.378998 454.959747,235.378998 437.847351,235.378998 
	C439.156555,238.610718 439.680054,242.847229 441.256866,243.284378 
	C447.992950,245.151825 448.796021,250.516830 448.851837,255.544281 
	C449.147766,282.206116 449.151123,308.875031 448.810425,335.535797 
	C448.761078,339.400116 449.346802,345.010345 444.299896,346.664581 
	C438.761169,348.480072 438.298309,351.814087 439.434082,356.679077 
	C455.190277,356.679077 470.919006,356.679077 486.753174,356.679077 
	C487.111389,352.966034 487.963318,349.417572 483.881104,347.483337 
	C479.182739,345.257050 477.965851,341.279205 477.982117,336.497437 
	C478.032043,321.831787 478.000122,307.165833 478.000000,291.500000 
z"/>
<path fill="#302D70" opacity="1.000000" stroke="none" 
	d="
M305.655701,295.554352 
	C305.333221,307.808777 305.293640,319.621185 304.956726,331.425110 
	C304.715546,339.874329 305.120667,348.534149 303.384460,356.706360 
	C300.305054,371.200806 289.897522,380.517609 277.787537,388.057007 
	C267.656830,394.364136 256.493408,396.954865 244.684570,396.984680 
	C223.358688,397.038544 202.032562,397.004639 180.706543,396.996460 
	C174.018188,396.993866 174.009308,396.977783 174.002747,390.093018 
	C173.994644,381.595947 174.192352,373.092957 173.927444,364.604187 
	C173.787811,360.129242 175.546692,358.728668 179.801605,358.959869 
	C194.207550,359.742645 208.633347,360.982574 223.032913,360.772186 
	C232.693298,360.631073 242.443405,358.893097 251.932709,356.846436 
	C262.488098,354.569855 266.746521,347.973877 267.055084,337.115082 
	C267.507416,321.196960 268.199402,305.282043 269.078003,289.381714 
	C269.351501,284.432220 267.954010,282.825806 262.762268,282.877594 
	C236.107391,283.143433 209.447678,282.898193 182.791611,283.094696 
	C178.186264,283.128693 176.758804,281.739655 176.908112,277.173615 
	C177.218292,267.687012 177.253845,258.173706 176.896454,248.690430 
	C176.715759,243.895920 178.530899,242.805893 182.929764,242.933014 
	C210.667648,243.734467 238.411758,244.318771 266.152985,245.007004 
	C278.108887,245.303619 290.061523,245.760910 302.018707,245.958405 
	C305.102722,246.009338 306.050842,247.206696 306.023651,250.133667 
	C305.884399,265.124725 305.869659,280.116913 305.655701,295.554352 
z"/>
<path fill="#77419F" opacity="1.000000" stroke="none" 
	d="
M165.749329,190.637024 
	C177.855469,189.940735 189.593872,189.227402 201.340103,189.058823 
	C217.638611,188.824890 233.942993,189.000000 250.647003,189.000000 
	C250.779556,190.726242 250.979309,192.156952 250.984543,193.588409 
	C251.015015,201.916061 251.000153,210.243896 250.999908,218.571671 
	C250.999634,227.345779 249.806183,228.321167 241.255707,226.954407 
	C238.178360,226.462494 235.053391,226.168839 231.939102,226.026443 
	C223.006256,225.618011 214.030258,224.669479 205.141159,225.171555 
	C194.529510,225.770920 183.899567,227.167450 173.445358,229.117996 
	C163.005661,231.065796 157.154266,239.088348 156.981461,249.519318 
	C156.720291,265.285583 156.329788,281.049683 156.005112,296.814941 
	C155.967834,298.625183 156.000061,300.436890 156.000061,302.869446 
	C186.686646,302.869446 217.048767,302.869446 247.702148,302.869446 
	C247.702148,316.403687 247.702148,329.317657 247.702148,342.510376 
	C239.131332,342.510376 230.577209,342.529144 222.023376,342.487885 
	C220.886276,342.482422 219.753082,342.043243 218.613998,342.021881 
	C199.351761,341.660858 180.089890,341.245789 160.825821,341.029877 
	C147.092010,340.875946 133.355087,341.000000 119.398560,341.000000 
	C119.200294,338.133850 118.999207,336.688385 119.015434,335.245361 
	C119.329201,307.321503 119.594566,279.396729 120.051758,251.475128 
	C120.173386,244.047150 120.272148,236.524323 121.490341,229.230240 
	C123.474838,217.347809 131.708466,209.247879 140.678146,202.260468 
	C147.907288,196.628922 156.005859,192.176041 165.749329,190.637024 
z"/>
<path fill="#77419F" opacity="1.000000" stroke="none" 
	d="
M764.768188,347.340271 
	C770.099121,348.870880 769.119080,352.700134 768.742249,356.635254 
	C753.362427,356.635254 737.968262,356.635254 722.265320,356.635254 
	C721.889099,352.271057 720.740295,348.283417 727.042847,346.558899 
	C728.931335,346.042114 730.785217,341.461639 730.818176,338.720764 
	C731.092896,315.894470 730.939270,293.062988 730.895081,270.233124 
	C730.894531,269.963562 730.631775,269.694550 730.050293,268.578491 
	C728.204224,273.012482 726.459839,276.860291 724.983032,280.808228 
	C718.524048,298.075836 712.142944,315.372589 705.728333,332.656799 
	C705.672119,332.808258 705.514709,332.921143 705.453613,333.071930 
	C704.002991,336.651306 703.462158,342.167419 700.902832,343.362305 
	C697.055054,345.158722 691.759094,344.270935 687.155273,343.791107 
	C685.660645,343.635284 683.732544,341.418060 683.142822,339.742432 
	C675.652344,318.460663 668.380737,297.101959 661.018860,275.774719 
	C660.240784,273.520599 659.244812,271.341705 657.382080,269.217712 
	C657.254944,270.557861 657.018494,271.897919 657.016968,273.238220 
	C656.993408,293.736328 656.939087,314.234772 657.039001,334.732422 
	C657.067871,340.656311 658.101257,345.968964 664.788635,348.700409 
	C666.490356,349.395447 666.834351,353.414703 668.089417,356.646179 
	C655.335754,356.646179 643.940674,356.646179 632.370239,356.646179 
	C631.427673,351.999268 631.688599,348.608215 636.878113,346.185608 
	C639.047058,345.173065 640.793762,340.861755 640.822937,338.030670 
	C641.110535,310.036163 641.080627,282.037079 640.912354,254.040604 
	C640.885193,249.531387 639.183899,245.805267 634.235413,243.633057 
	C632.459473,242.853470 632.215149,238.584900 630.951477,235.000000 
	C641.536499,235.000000 650.654907,234.999969 659.773315,235.000000 
	C663.939636,235.000015 668.141724,235.338013 672.261719,234.901230 
	C676.059570,234.498611 677.703247,236.340530 678.710999,239.413132 
	C683.493042,253.993774 688.204956,268.597595 693.028259,283.164490 
	C695.069153,289.328156 697.308838,295.426392 699.523987,301.530487 
	C699.620361,301.795990 700.376282,301.822113 701.201660,302.075287 
	C705.476562,290.235809 709.672424,278.450714 713.989380,266.710205 
	C717.586670,256.926971 721.281494,247.178558 725.069763,237.468048 
	C725.458801,236.470993 726.775452,235.150330 727.674255,235.140518 
	C741.293091,234.991882 754.913940,235.037323 768.652283,235.037323 
	C769.147217,239.460678 770.141907,243.038544 764.387634,244.660019 
	C762.388611,245.223312 760.215149,249.481064 760.189209,252.072205 
	C759.895142,281.399933 759.900757,310.732697 760.195618,340.060394 
	C760.219421,342.424408 762.969543,344.761047 764.768188,347.340271 
z"/>
<path fill="#77419F" opacity="1.000000" stroke="none" 
	d="
M551.758545,252.770462 
	C542.446472,265.394775 539.347839,279.407837 540.000854,294.461517 
	C540.330750,302.065826 539.848450,309.821350 541.217468,317.234436 
	C542.828857,325.959900 544.470032,335.005341 551.874023,341.486877 
	C556.673706,345.688507 561.726990,347.112549 567.754028,344.964630 
	C573.800171,342.809937 575.397583,337.654205 575.907654,332.152435 
	C576.336609,327.526184 576.014282,322.828735 575.995117,318.162933 
	C575.975403,313.345642 574.369202,309.934723 569.475098,307.699005 
	C567.605957,306.845154 567.205078,302.777008 565.806763,299.374756 
	C582.295410,299.374756 597.351929,299.374756 612.798950,299.374756 
	C612.880432,303.252808 614.179810,306.773895 609.092896,309.381531 
	C606.815735,310.548798 605.289917,315.135468 605.180054,318.232697 
	C604.743652,330.534271 605.000427,342.860474 605.000427,355.353027 
	C601.169312,356.241669 597.588196,357.381958 593.926025,357.783966 
	C592.234680,357.969635 590.405334,356.642334 588.602173,356.128662 
	C586.223450,355.451019 583.407288,353.776428 581.472839,354.468719 
	C564.581055,360.513824 547.976746,359.532837 532.200012,351.702911 
	C525.756592,348.505066 520.673828,342.682312 517.323425,335.777863 
	C509.236420,319.112213 509.205078,301.593292 510.816040,283.674988 
	C511.881866,271.819580 515.490540,260.956909 523.208069,252.234726 
	C528.174377,246.621887 534.727661,241.798828 541.489502,238.517090 
	C555.540222,231.697769 570.784363,233.373550 585.748352,234.940582 
	C591.417175,235.534225 597.006226,236.890549 602.770081,237.924072 
	C602.770081,246.995697 602.770081,255.613403 602.770081,264.972351 
	C598.772827,264.972351 594.730530,265.526733 590.983093,264.716766 
	C589.338501,264.361328 587.910278,261.384125 587.051086,259.319641 
	C584.488098,253.161591 581.457520,248.277802 573.952209,246.712082 
	C565.328491,244.913040 558.530579,247.583923 551.758545,252.770462 
z"/>
<path fill="#77419F" opacity="1.000000" stroke="none" 
	d="
M800.051636,321.133362 
	C803.434509,312.032867 806.775818,303.331665 810.091492,294.620697 
	C815.258179,281.047119 820.408264,267.467255 825.564087,253.889526 
	C827.923523,247.675919 830.279663,241.461075 832.728577,235.006302 
	C840.192261,235.006302 847.683044,234.837128 855.152039,235.164658 
	C856.472717,235.222565 858.428406,237.130219 858.865723,238.558731 
	C865.701843,260.888519 872.342896,283.278046 879.014832,305.657990 
	C882.364380,316.893311 885.492554,328.200592 889.156067,339.332092 
	C890.066833,342.099731 892.156067,345.299988 894.601624,346.564697 
	C899.150330,348.916992 899.614685,352.101807 898.624146,356.649292 
	C882.338501,356.649292 865.950562,356.649292 849.281128,356.649292 
	C849.281128,354.258789 849.281128,351.995544 849.281128,349.709167 
	C857.302917,346.357910 858.372803,344.398499 857.000488,335.528137 
	C854.598145,320.000000 854.598206,320.000000 838.983826,320.000000 
	C831.991943,320.000000 825.000000,320.000000 817.310852,320.000000 
	C815.553711,326.260590 813.558960,332.539886 812.081726,338.938690 
	C811.179932,342.844574 812.544617,346.076904 816.814148,347.437256 
	C821.480896,348.924133 821.667786,352.389191 820.572937,356.674622 
	C807.924500,356.674622 795.202332,356.674622 782.554504,356.674622 
	C780.796753,351.597076 782.654724,348.654144 787.070801,346.248322 
	C789.290161,345.039185 791.172668,342.490295 792.286926,340.115326 
	C795.132996,334.048950 797.462402,327.740143 800.051636,321.133362 
M838.466919,308.000000 
	C841.897156,308.000000 845.327393,308.000000 849.961182,308.000000 
	C845.904175,293.716492 842.114624,280.374695 838.325134,267.032898 
	C837.724731,266.894012 837.124329,266.755127 836.523926,266.616241 
	C831.617188,280.215820 826.710449,293.815430 821.592651,308.000000 
	C827.534668,308.000000 832.506836,308.000000 838.466919,308.000000 
z"/>
<path fill="#77419F" opacity="1.000000" stroke="none" 
	d="
M407.947144,349.038940 
	C401.894775,351.751892 396.430908,355.568420 390.452972,356.722809 
	C374.208923,359.859619 357.914307,357.584900 341.772980,354.850189 
	C340.699005,354.668213 339.165619,352.733704 339.133942,351.578979 
	C338.906464,343.283966 339.012238,334.979828 339.012238,326.030670 
	C343.315582,326.030670 347.281921,325.759155 351.165924,326.204834 
	C352.256226,326.329956 353.599731,328.428650 353.986938,329.850861 
	C357.641815,343.275146 369.565216,348.468781 380.408722,344.975464 
	C391.850861,341.289337 395.692047,326.324127 387.080322,317.799866 
	C382.822937,313.585754 377.518829,310.403381 372.575714,306.913696 
	C364.871429,301.474701 356.487793,296.833252 349.463135,290.639099 
	C341.133087,283.293945 340.097839,272.904694 341.334503,262.355591 
	C342.392242,253.332733 346.411926,245.768921 354.381775,241.296097 
	C361.894226,237.079987 369.866180,233.582153 378.906494,233.981537 
	C388.337006,234.398178 397.785126,234.493500 407.202240,235.094604 
	C410.582886,235.310394 413.895599,236.590302 417.637909,237.479233 
	C417.637909,246.283356 417.637909,255.331818 417.637909,264.984009 
	C413.773804,264.984009 409.986115,265.132996 406.224884,264.883209 
	C405.237610,264.817657 404.095459,263.678192 403.452820,262.738831 
	C402.739349,261.695831 402.396423,260.345856 402.097565,259.080963 
	C398.826477,245.237900 383.557709,243.055328 373.632141,249.168869 
	C367.934265,252.678406 367.279602,265.125031 372.030334,270.608093 
	C378.026154,277.528137 386.351074,280.816895 393.849213,285.419800 
	C401.177673,289.918549 409.077484,293.836548 413.474945,301.768555 
	C415.476410,305.378723 417.848572,309.182068 418.385559,313.124847 
	C419.607178,322.094879 420.367218,331.349457 415.578033,339.690308 
	C413.646881,343.053528 410.755554,345.865387 407.947144,349.038940 
z"/>
<path fill="#77419F" opacity="1.000000" stroke="none" 
	d="
M478.000000,292.000000 
	C478.000122,307.165833 478.032043,321.831787 477.982117,336.497437 
	C477.965851,341.279205 479.182739,345.257050 483.881104,347.483337 
	C487.963318,349.417572 487.111389,352.966034 486.753174,356.679077 
	C470.919006,356.679077 455.190277,356.679077 439.434082,356.679077 
	C438.298309,351.814087 438.761169,348.480072 444.299896,346.664581 
	C449.346802,345.010345 448.761078,339.400116 448.810425,335.535797 
	C449.151123,308.875031 449.147766,282.206116 448.851837,255.544281 
	C448.796021,250.516830 447.992950,245.151825 441.256866,243.284378 
	C439.680054,242.847229 439.156555,238.610718 437.847351,235.378998 
	C454.959747,235.378998 470.682678,235.378998 486.567902,235.378998 
	C487.612823,239.561279 487.481445,242.715988 482.703796,244.923782 
	C478.885681,246.688141 477.993042,250.879013 477.996704,255.002029 
	C478.007446,267.168030 478.000214,279.334015 478.000000,292.000000 
z"/>
<path fill="#000000" opacity="1.000000" stroke="none" 
	d="
M837.972900,308.000000 
	C832.506836,308.000000 827.534668,308.000000 821.592651,308.000000 
	C826.710449,293.815430 831.617188,280.215820 836.523926,266.616241 
	C837.124329,266.755127 837.724731,266.894012 838.325134,267.032898 
	C842.114624,280.374695 845.904175,293.716492 849.961182,308.000000 
	C845.327393,308.000000 841.897156,308.000000 837.972900,308.000000 
z"/>
</svg>